0
SECTION
2
HEADER
9
$HANDSEED
5
46
9
$INSUNITS
70
4
9
$ACADVER
1
AC1021
0
ENDSEC
0
SECTION
2
CLASSES
0
ENDSEC
0
SECTION
2
TABLES
0
TABLE
2
LTYPE
5
44
330
0
100
AcDbSymbolTable
70
5
0
LTYPE
5
2
330
44
100
AcDbSymbolTableRecord
100
AcDbLinetypeTableRecord
2
CONTINUOUS
3
______
70
0
72
65
73
0
40
0
0
LTYPE
5
3
330
44
100
AcDbSymbolTableRecord
100
AcDbLinetypeTableRecord
2
DASHED
3
_ _ _ 
70
0
72
65
73
2
40
10
49
5
74
0
49
-5
74
0
0
LTYPE
5
4
330
44
100
AcDbSymbolTableRecord
100
AcDbLinetypeTableRecord
2
DOTTED
3
. . . 
70
0
72
65
73
2
40
5
49
0
74
0
49
-5
74
0
0
LTYPE
5
6
330
44
100
AcDbSymbolTableRecord
100
AcDbLinetypeTableRecord
2
ByBlock
3

70
0
72
65
73
0
40
0
0
LTYPE
5
7
330
44
100
AcDbSymbolTableRecord
100
AcDbLinetypeTableRecord
2
ByLayer
3

70
0
72
65
73
0
40
0
0
ENDTAB
0
TABLE
2
LAYER
5
45
330
0
100
AcDbSymbolTable
70
3
0
LAYER
5
5
330
45
100
AcDbSymbolTableRecord
100
AcDbLayerTableRecord
2
0
62
7
70
0
6
CONTINUOUS
390
1
0
LAYER
5
16
330
45
100
AcDbSymbolTableRecord
100
AcDbLayerTableRecord
2
SHEET
62
2
70
0
6
CONTINUOUS
390
1
0
LAYER
5
17
330
45
100
AcDbSymbolTableRecord
100
AcDbLayerTableRecord
2
NESTED_PARTS
62
7
70
0
6
CONTINUOUS
390
1
0
ENDTAB
0
TABLE
2
VPORT
5
8
330
0
100
AcDbSymbolTable
70
1
0
VPORT
5
E
330
8
100
AcDbSymbolTableRecord
100
AcDbViewportTableRecord
2
*ACTIVE
40
1000
70
0
0
ENDTAB
0
TABLE
2
STYLE
5
9
330
0
100
AcDbSymbolTable
70
1
0
STYLE
5
F
330
9
100
AcDbSymbolTableRecord
100
AcDbTextStyleTableRecord
2
standard
70
0
40
0
41
1
50
0
71
0
42
1
3
txt
4

0
ENDTAB
0
TABLE
2
VIEW
5
A
330
0
100
AcDbSymbolTable
70
0
0
ENDTAB
0
TABLE
2
UCS
5
B
330
0
100
AcDbSymbolTable
70
0
0
ENDTAB
0
TABLE
2
APPID
5
C
330
0
100
AcDbSymbolTable
70
1
0
APPID
5
10
330
C
100
AcDbSymbolTableRecord
100
AcDbRegAppTableRecord
2
ACAD
70
0
0
ENDTAB
0
TABLE
2
DIMSTYLE
5
D
330
0
100
AcDbSymbolTable
100
AcDbDimStyleTable
70
0
71
1
0
ENDTAB
0
TABLE
2
BLOCK_RECORD
5
41
330
0
100
AcDbSymbolTable
70
2
0
BLOCK_RECORD
5
42
330
41
100
AcDbSymbolTableRecord
100
AcDbBlockTableRecord
2
*Model_Space
70
0
280
0
281
1
0
BLOCK_RECORD
5
43
330
41
100
AcDbSymbolTableRecord
100
AcDbBlockTableRecord
2
*Paper_Space
70
0
280
0
281
1
0
ENDTAB
0
ENDSEC
0
SECTION
2
BLOCKS
0
BLOCK
5
11
330
0
100
AcDbEntity
100
AcDbBlockBegin
2
*Model_Space
70
0
10
0
20
0
30
0
3
*Model_Space
1

0
ENDBLK
5
12
330
0
100
AcDbEntity
100
AcDbBlockEnd
0
BLOCK
5
13
330
0
100
AcDbEntity
100
AcDbBlockBegin
2
*Paper_Space
70
0
10
0
20
0
30
0
3
*Paper_Space
1

0
ENDBLK
5
14
330
0
100
AcDbEntity
100
AcDbBlockEnd
0
ENDSEC
0
SECTION
2
ENTITIES
0
LWPOLYLINE
5
18
330
11
100
AcDbEntity
100
AcDbPolyline
8
SHEET
6
ByLayer
62
256
370
-1
90
4
70
1
10
0
20
0
10
0
20
220
10
320
20
220
10
320
20
0
0
TEXT
5
19
330
11
100
AcDbEntity
100
AcDbText
8
SHEET
10
10
20
205
30
0
40
8
1
SHEET-1
50
0
100
AcDbText
0
LWPOLYLINE
5
1A
330
11
100
AcDbEntity
100
AcDbPolyline
8
SHEET
6
ByLayer
62
256
370
-1
90
4
70
1
10
360
20
0
10
360
20
220
10
680
20
220
10
680
20
0
0
TEXT
5
1B
330
11
100
AcDbEntity
100
AcDbText
8
SHEET
10
370
20
205
30
0
40
8
1
SHEET-2
50
0
100
AcDbText
0
TEXT
5
40
330
11
100
AcDbEntity
100
AcDbText
8
SHEET
10
10
20
230
30
0
40
6
1
TRACE:nesting-mou0oavy-vs3cwm
50
0
100
AcDbText
0
LWPOLYLINE
5
1C
330
11
100
AcDbEntity
100
AcDbPolyline
8
NESTED_PARTS
6
ByLayer
62
256
370
-1
90
8
70
1
10
5
20
5
10
125
20
5
10
125
20
65
10
95
20
65
10
95
20
35
10
35
20
35
10
35
20
65
10
5
20
65
0
LWPOLYLINE
5
1D
330
11
100
AcDbEntity
100
AcDbPolyline
8
NESTED_PARTS
6
ByLayer
62
256
370
-1
90
49
70
1
10
31
20
20
10
30.948669168242862
20
20.78315715332031
10
30.79555495773441
20
21.552914270615126
10
30.54327719506772
20
22.296100594190538
10
30.196152422706632
20
23
10
29.760120041747413
20
23.652568574052324
10
29.242640687119284
20
24.242640687119284
10
28.652568574052324
20
24.760120041747413
10
28
20
25.196152422706632
10
27.296100594190538
20
25.54327719506772
10
26.552914270615126
20
25.79555495773441
10
25.78315715332031
20
25.948669168242862
10
25
20
26
10
24.21684284667969
20
25.948669168242862
10
23.447085729384877
20
25.79555495773441
10
22.703899405809462
20
25.54327719506772
10
22
20
25.196152422706632
10
21.347431425947676
20
24.760120041747413
10
20.757359312880716
20
24.242640687119284
10
20.23987995825259
20
23.652568574052324
10
19.803847577293368
20
23
10
19.45672280493228
20
22.29610059419054
10
19.20444504226559
20
21.552914270615126
10
19.051330831757138
20
20.78315715332031
10
19
20
20
10
19.051330831757138
20
19.21684284667969
10
19.20444504226559
20
18.447085729384874
10
19.45672280493228
20
17.703899405809462
10
19.803847577293368
20
17
10
20.239879958252587
20
16.347431425947676
10
20.757359312880713
20
15.757359312880716
10
21.347431425947676
20
15.23987995825259
10
21.999999999999996
20
14.803847577293368
10
22.703899405809462
20
14.45672280493228
10
23.447085729384877
20
14.20444504226559
10
24.21684284667969
20
14.051330831757138
10
25
20
14
10
25.783157153320307
20
14.051330831757138
10
26.552914270615123
20
14.20444504226559
10
27.296100594190534
20
14.456722804932278
10
28
20
14.803847577293368
10
28.652568574052317
20
15.239879958252587
10
29.242640687119284
20
15.757359312880714
10
29.76012004174741
20
16.347431425947676
10
30.196152422706632
20
16.999999999999996
10
30.54327719506772
20
17.703899405809462
10
30.79555495773441
20
18.44708572938487
10
30.948669168242862
20
19.21684284667969
10
31
20
20
0
LWPOLYLINE
5
1E
330
11
100
AcDbEntity
100
AcDbPolyline
8
NESTED_PARTS
6
ByLayer
62
256
370
-1
90
49
70
1
10
111
20
20
10
110.94866916824286
20
20.78315715332031
10
110.79555495773441
20
21.552914270615126
10
110.54327719506772
20
22.296100594190538
10
110.19615242270663
20
23
10
109.76012004174741
20
23.652568574052324
10
109.24264068711929
20
24.242640687119284
10
108.65256857405232
20
24.760120041747413
10
108
20
25.196152422706632
10
107.29610059419053
20
25.54327719506772
10
106.55291427061512
20
25.79555495773441
10
105.7831571533203
20
25.948669168242862
10
105
20
26
10
104.2168428466797
20
25.948669168242862
10
103.44708572938488
20
25.79555495773441
10
102.70389940580947
20
25.54327719506772
10
102
20
25.196152422706632
10
101.34743142594768
20
24.760120041747413
10
100.75735931288071
20
24.242640687119284
10
100.23987995825259
20
23.652568574052324
10
99.80384757729337
20
23
10
99.45672280493228
20
22.29610059419054
10
99.20444504226559
20
21.552914270615126
10
99.05133083175714
20
20.78315715332031
10
99
20
20
10
99.05133083175714
20
19.21684284667969
10
99.20444504226559
20
18.447085729384874
10
99.45672280493228
20
17.703899405809462
10
99.80384757729337
20
17
10
100.23987995825259
20
16.347431425947676
10
100.75735931288071
20
15.757359312880716
10
101.34743142594768
20
15.23987995825259
10
102
20
14.803847577293368
10
102.70389940580947
20
14.45672280493228
10
103.44708572938488
20
14.20444504226559
10
104.2168428466797
20
14.051330831757138
10
105
20
14
10
105.7831571533203
20
14.051330831757138
10
106.55291427061512
20
14.20444504226559
10
107.29610059419053
20
14.456722804932278
10
108
20
14.803847577293368
10
108.65256857405232
20
15.239879958252587
10
109.24264068711929
20
15.757359312880714
10
109.76012004174741
20
16.347431425947676
10
110.19615242270663
20
16.999999999999996
10
110.54327719506772
20
17.703899405809462
10
110.79555495773441
20
18.44708572938487
10
110.94866916824286
20
19.21684284667969
10
111
20
20
0
LWPOLYLINE
5
1F
330
11
100
AcDbEntity
100
AcDbPolyline
8
NESTED_PARTS
6
ByLayer
62
256
370
-1
90
8
70
1
10
130
20
5
10
250
20
5
10
250
20
65
10
220
20
65
10
220
20
35
10
160
20
35
10
160
20
65
10
130
20
65
0
LWPOLYLINE
5
20
330
11
100
AcDbEntity
100
AcDbPolyline
8
NESTED_PARTS
6
ByLayer
62
256
370
-1
90
49
70
1
10
156
20
20
10
155.94866916824287
20
20.78315715332031
10
155.7955549577344
20
21.552914270615126
10
155.54327719506773
20
22.296100594190538
10
155.19615242270663
20
23
10
154.76012004174743
20
23.652568574052324
10
154.2426406871193
20
24.242640687119284
10
153.65256857405234
20
24.760120041747413
10
153
20
25.196152422706632
10
152.29610059419053
20
25.54327719506772
10
151.55291427061513
20
25.79555495773441
10
150.7831571533203
20
25.948669168242862
10
150
20
26
10
149.2168428466797
20
25.948669168242862
10
148.44708572938487
20
25.79555495773441
10
147.70389940580947
20
25.54327719506772
10
147
20
25.196152422706632
10
146.34743142594766
20
24.760120041747413
10
145.7573593128807
20
24.242640687119284
10
145.2398799582526
20
23.652568574052324
10
144.80384757729337
20
23
10
144.45672280493227
20
22.29610059419054
10
144.2044450422656
20
21.552914270615126
10
144.05133083175713
20
20.78315715332031
10
144
20
20
10
144.05133083175713
20
19.21684284667969
10
144.2044450422656
20
18.447085729384874
10
144.45672280493227
20
17.703899405809462
10
144.80384757729337
20
17
10
145.2398799582526
20
16.347431425947676
10
145.7573593128807
20
15.757359312880716
10
146.34743142594766
20
15.23987995825259
10
147
20
14.803847577293368
10
147.70389940580947
20
14.45672280493228
10
148.44708572938487
20
14.20444504226559
10
149.2168428466797
20
14.051330831757138
10
150
20
14
10
150.7831571533203
20
14.051330831757138
10
151.55291427061513
20
14.20444504226559
10
152.29610059419053
20
14.456722804932278
10
153
20
14.803847577293368
10
153.6525685740523
20
15.239879958252587
10
154.2426406871193
20
15.757359312880714
10
154.7601200417474
20
16.347431425947676
10
155.19615242270663
20
16.999999999999996
10
155.54327719506773
20
17.703899405809462
10
155.7955549577344
20
18.44708572938487
10
155.94866916824287
20
19.21684284667969
10
156
20
20
0
LWPOLYLINE
5
21
330
11
100
AcDbEntity
100
AcDbPolyline
8
NESTED_PARTS
6
ByLayer
62
256
370
-1
90
49
70
1
10
236
20
20
10
235.94866916824287
20
20.78315715332031
10
235.7955549577344
20
21.552914270615126
10
235.54327719506773
20
22.296100594190538
10
235.19615242270663
20
23
10
234.76012004174743
20
23.652568574052324
10
234.2426406871193
20
24.242640687119284
10
233.65256857405234
20
24.760120041747413
10
233
20
25.196152422706632
10
232.29610059419053
20
25.54327719506772
10
231.55291427061513
20
25.79555495773441
10
230.7831571533203
20
25.948669168242862
10
230
20
26
10
229.2168428466797
20
25.948669168242862
10
228.44708572938487
20
25.79555495773441
10
227.70389940580947
20
25.54327719506772
10
227
20
25.196152422706632
10
226.34743142594766
20
24.760120041747413
10
225.7573593128807
20
24.242640687119284
10
225.23987995825257
20
23.652568574052324
10
224.80384757729337
20
23
10
224.45672280493227
20
22.29610059419054
10
224.2044450422656
20
21.552914270615126
10
224.05133083175713
20
20.78315715332031
10
224
20
20
10
224.05133083175713
20
19.21684284667969
10
224.2044450422656
20
18.447085729384874
10
224.45672280493227
20
17.703899405809462
10
224.80384757729337
20
17
10
225.23987995825257
20
16.347431425947676
10
225.7573593128807
20
15.757359312880716
10
226.34743142594766
20
15.23987995825259
10
227
20
14.803847577293368
10
227.70389940580947
20
14.45672280493228
10
228.44708572938487
20
14.20444504226559
10
229.2168428466797
20
14.051330831757138
10
230
20
14
10
230.7831571533203
20
14.051330831757138
10
231.55291427061513
20
14.20444504226559
10
232.29610059419053
20
14.456722804932278
10
233
20
14.803847577293368
10
233.65256857405234
20
15.239879958252587
10
234.2426406871193
20
15.757359312880714
10
234.76012004174743
20
16.347431425947676
10
235.19615242270663
20
16.999999999999996
10
235.54327719506773
20
17.703899405809462
10
235.7955549577344
20
18.44708572938487
10
235.94866916824287
20
19.21684284667969
10
236
20
20
0
LWPOLYLINE
5
22
330
11
100
AcDbEntity
100
AcDbPolyline
8
NESTED_PARTS
6
ByLayer
62
256
370
-1
90
8
70
1
10
5
20
70
10
125
20
70
10
125
20
130
10
95
20
130
10
95
20
100
10
35
20
100
10
35
20
130
10
5
20
130
0
LWPOLYLINE
5
23
330
11
100
AcDbEntity
100
AcDbPolyline
8
NESTED_PARTS
6
ByLayer
62
256
370
-1
90
49
70
1
10
31
20
85
10
30.948669168242862
20
85.7831571533203
10
30.79555495773441
20
86.55291427061513
10
30.54327719506772
20
87.29610059419053
10
30.196152422706632
20
88
10
29.760120041747413
20
88.65256857405232
10
29.242640687119284
20
89.24264068711929
10
28.652568574052324
20
89.76012004174741
10
28
20
90.19615242270663
10
27.296100594190538
20
90.54327719506772
10
26.552914270615126
20
90.79555495773441
10
25.78315715332031
20
90.94866916824286
10
25
20
91
10
24.21684284667969
20
90.94866916824286
10
23.447085729384877
20
90.79555495773441
10
22.703899405809462
20
90.54327719506772
10
22
20
90.19615242270663
10
21.347431425947676
20
89.76012004174741
10
20.757359312880716
20
89.24264068711929
10
20.23987995825259
20
88.65256857405232
10
19.803847577293368
20
88
10
19.45672280493228
20
87.29610059419053
10
19.20444504226559
20
86.55291427061513
10
19.051330831757138
20
85.78315715332032
10
19
20
85
10
19.051330831757138
20
84.2168428466797
10
19.20444504226559
20
83.44708572938488
10
19.45672280493228
20
82.70389940580947
10
19.803847577293368
20
82
10
20.239879958252587
20
81.34743142594768
10
20.757359312880713
20
80.75735931288071
10
21.347431425947676
20
80.23987995825259
10
21.999999999999996
20
79.80384757729337
10
22.703899405809462
20
79.45672280493228
10
23.447085729384877
20
79.20444504226559
10
24.21684284667969
20
79.05133083175714
10
25
20
79
10
25.783157153320307
20
79.05133083175714
10
26.552914270615123
20
79.20444504226559
10
27.296100594190534
20
79.45672280493228
10
28
20
79.80384757729337
10
28.652568574052317
20
80.23987995825259
10
29.242640687119284
20
80.75735931288071
10
29.76012004174741
20
81.34743142594768
10
30.196152422706632
20
82
10
30.54327719506772
20
82.70389940580947
10
30.79555495773441
20
83.44708572938487
10
30.948669168242862
20
84.2168428466797
10
31
20
85
0
LWPOLYLINE
5
24
330
11
100
AcDbEntity
100
AcDbPolyline
8
NESTED_PARTS
6
ByLayer
62
256
370
-1
90
49
70
1
10
111
20
85
10
110.94866916824286
20
85.7831571533203
10
110.79555495773441
20
86.55291427061513
10
110.54327719506772
20
87.29610059419053
10
110.19615242270663
20
88
10
109.76012004174741
20
88.65256857405232
10
109.24264068711929
20
89.24264068711929
10
108.65256857405232
20
89.76012004174741
10
108
20
90.19615242270663
10
107.29610059419053
20
90.54327719506772
10
106.55291427061512
20
90.79555495773441
10
105.7831571533203
20
90.94866916824286
10
105
20
91
10
104.2168428466797
20
90.94866916824286
10
103.44708572938488
20
90.79555495773441
10
102.70389940580947
20
90.54327719506772
10
102
20
90.19615242270663
10
101.34743142594768
20
89.76012004174741
10
100.75735931288071
20
89.24264068711929
10
100.23987995825259
20
88.65256857405232
10
99.80384757729337
20
88
10
99.45672280493228
20
87.29610059419053
10
99.20444504226559
20
86.55291427061513
10
99.05133083175714
20
85.78315715332032
10
99
20
85
10
99.05133083175714
20
84.2168428466797
10
99.20444504226559
20
83.44708572938488
10
99.45672280493228
20
82.70389940580947
10
99.80384757729337
20
82
10
100.23987995825259
20
81.34743142594768
10
100.75735931288071
20
80.75735931288071
10
101.34743142594768
20
80.23987995825259
10
102
20
79.80384757729337
10
102.70389940580947
20
79.45672280493228
10
103.44708572938488
20
79.20444504226559
10
104.2168428466797
20
79.05133083175714
10
105
20
79
10
105.7831571533203
20
79.05133083175714
10
106.55291427061512
20
79.20444504226559
10
107.29610059419053
20
79.45672280493228
10
108
20
79.80384757729337
10
108.65256857405232
20
80.23987995825259
10
109.24264068711929
20
80.75735931288071
10
109.76012004174741
20
81.34743142594768
10
110.19615242270663
20
82
10
110.54327719506772
20
82.70389940580947
10
110.79555495773441
20
83.44708572938487
10
110.94866916824286
20
84.2168428466797
10
111
20
85
0
LWPOLYLINE
5
25
330
11
100
AcDbEntity
100
AcDbPolyline
8
NESTED_PARTS
6
ByLayer
62
256
370
-1
90
8
70
1
10
130
20
70
10
250
20
70
10
250
20
130
10
220
20
130
10
220
20
100
10
160
20
100
10
160
20
130
10
130
20
130
0
LWPOLYLINE
5
26
330
11
100
AcDbEntity
100
AcDbPolyline
8
NESTED_PARTS
6
ByLayer
62
256
370
-1
90
49
70
1
10
156
20
85
10
155.94866916824287
20
85.7831571533203
10
155.7955549577344
20
86.55291427061513
10
155.54327719506773
20
87.29610059419053
10
155.19615242270663
20
88
10
154.76012004174743
20
88.65256857405232
10
154.2426406871193
20
89.24264068711929
10
153.65256857405234
20
89.76012004174741
10
153
20
90.19615242270663
10
152.29610059419053
20
90.54327719506772
10
151.55291427061513
20
90.79555495773441
10
150.7831571533203
20
90.94866916824286
10
150
20
91
10
149.2168428466797
20
90.94866916824286
10
148.44708572938487
20
90.79555495773441
10
147.70389940580947
20
90.54327719506772
10
147
20
90.19615242270663
10
146.34743142594766
20
89.76012004174741
10
145.7573593128807
20
89.24264068711929
10
145.2398799582526
20
88.65256857405232
10
144.80384757729337
20
88
10
144.45672280493227
20
87.29610059419053
10
144.2044450422656
20
86.55291427061513
10
144.05133083175713
20
85.78315715332032
10
144
20
85
10
144.05133083175713
20
84.2168428466797
10
144.2044450422656
20
83.44708572938488
10
144.45672280493227
20
82.70389940580947
10
144.80384757729337
20
82
10
145.2398799582526
20
81.34743142594768
10
145.7573593128807
20
80.75735931288071
10
146.34743142594766
20
80.23987995825259
10
147
20
79.80384757729337
10
147.70389940580947
20
79.45672280493228
10
148.44708572938487
20
79.20444504226559
10
149.2168428466797
20
79.05133083175714
10
150
20
79
10
150.7831571533203
20
79.05133083175714
10
151.55291427061513
20
79.20444504226559
10
152.29610059419053
20
79.45672280493228
10
153
20
79.80384757729337
10
153.6525685740523
20
80.23987995825259
10
154.2426406871193
20
80.75735931288071
10
154.7601200417474
20
81.34743142594768
10
155.19615242270663
20
82
10
155.54327719506773
20
82.70389940580947
10
155.7955549577344
20
83.44708572938487
10
155.94866916824287
20
84.2168428466797
10
156
20
85
0
LWPOLYLINE
5
27
330
11
100
AcDbEntity
100
AcDbPolyline
8
NESTED_PARTS
6
ByLayer
62
256
370
-1
90
49
70
1
10
236
20
85
10
235.94866916824287
20
85.7831571533203
10
235.7955549577344
20
86.55291427061513
10
235.54327719506773
20
87.29610059419053
10
235.19615242270663
20
88
10
234.76012004174743
20
88.65256857405232
10
234.2426406871193
20
89.24264068711929
10
233.65256857405234
20
89.76012004174741
10
233
20
90.19615242270663
10
232.29610059419053
20
90.54327719506772
10
231.55291427061513
20
90.79555495773441
10
230.7831571533203
20
90.94866916824286
10
230
20
91
10
229.2168428466797
20
90.94866916824286
10
228.44708572938487
20
90.79555495773441
10
227.70389940580947
20
90.54327719506772
10
227
20
90.19615242270663
10
226.34743142594766
20
89.76012004174741
10
225.7573593128807
20
89.24264068711929
10
225.23987995825257
20
88.65256857405232
10
224.80384757729337
20
88
10
224.45672280493227
20
87.29610059419053
10
224.2044450422656
20
86.55291427061513
10
224.05133083175713
20
85.78315715332032
10
224
20
85
10
224.05133083175713
20
84.2168428466797
10
224.2044450422656
20
83.44708572938488
10
224.45672280493227
20
82.70389940580947
10
224.80384757729337
20
82
10
225.23987995825257
20
81.34743142594768
10
225.7573593128807
20
80.75735931288071
10
226.34743142594766
20
80.23987995825259
10
227
20
79.80384757729337
10
227.70389940580947
20
79.45672280493228
10
228.44708572938487
20
79.20444504226559
10
229.2168428466797
20
79.05133083175714
10
230
20
79
10
230.7831571533203
20
79.05133083175714
10
231.55291427061513
20
79.20444504226559
10
232.29610059419053
20
79.45672280493228
10
233
20
79.80384757729337
10
233.65256857405234
20
80.23987995825259
10
234.2426406871193
20
80.75735931288071
10
234.76012004174743
20
81.34743142594768
10
235.19615242270663
20
82
10
235.54327719506773
20
82.70389940580947
10
235.7955549577344
20
83.44708572938487
10
235.94866916824287
20
84.2168428466797
10
236
20
85
0
LWPOLYLINE
5
28
330
11
100
AcDbEntity
100
AcDbPolyline
8
NESTED_PARTS
6
ByLayer
62
256
370
-1
90
8
70
1
10
5
20
135
10
125
20
135
10
125
20
195
10
95
20
195
10
95
20
165
10
35
20
165
10
35
20
195
10
5
20
195
0
LWPOLYLINE
5
29
330
11
100
AcDbEntity
100
AcDbPolyline
8
NESTED_PARTS
6
ByLayer
62
256
370
-1
90
49
70
1
10
31
20
150
10
30.948669168242862
20
150.7831571533203
10
30.79555495773441
20
151.55291427061513
10
30.54327719506772
20
152.29610059419053
10
30.196152422706632
20
153
10
29.760120041747413
20
153.65256857405234
10
29.242640687119284
20
154.2426406871193
10
28.652568574052324
20
154.76012004174743
10
28
20
155.19615242270663
10
27.296100594190538
20
155.54327719506773
10
26.552914270615126
20
155.7955549577344
10
25.78315715332031
20
155.94866916824287
10
25
20
156
10
24.21684284667969
20
155.94866916824287
10
23.447085729384877
20
155.7955549577344
10
22.703899405809462
20
155.54327719506773
10
22
20
155.19615242270663
10
21.347431425947676
20
154.76012004174743
10
20.757359312880716
20
154.2426406871193
10
20.23987995825259
20
153.65256857405234
10
19.803847577293368
20
153
10
19.45672280493228
20
152.29610059419053
10
19.20444504226559
20
151.55291427061513
10
19.051330831757138
20
150.7831571533203
10
19
20
150
10
19.051330831757138
20
149.2168428466797
10
19.20444504226559
20
148.44708572938487
10
19.45672280493228
20
147.70389940580947
10
19.803847577293368
20
147
10
20.239879958252587
20
146.34743142594766
10
20.757359312880713
20
145.7573593128807
10
21.347431425947676
20
145.2398799582526
10
21.999999999999996
20
144.80384757729337
10
22.703899405809462
20
144.45672280493227
10
23.447085729384877
20
144.2044450422656
10
24.21684284667969
20
144.05133083175713
10
25
20
144
10
25.783157153320307
20
144.05133083175713
10
26.552914270615123
20
144.2044450422656
10
27.296100594190534
20
144.45672280493227
10
28
20
144.80384757729337
10
28.652568574052317
20
145.23987995825257
10
29.242640687119284
20
145.7573593128807
10
29.76012004174741
20
146.34743142594766
10
30.196152422706632
20
147
10
30.54327719506772
20
147.70389940580947
10
30.79555495773441
20
148.44708572938487
10
30.948669168242862
20
149.2168428466797
10
31
20
150
0
LWPOLYLINE
5
2A
330
11
100
AcDbEntity
100
AcDbPolyline
8
NESTED_PARTS
6
ByLayer
62
256
370
-1
90
49
70
1
10
111
20
150
10
110.94866916824286
20
150.7831571533203
10
110.79555495773441
20
151.55291427061513
10
110.54327719506772
20
152.29610059419053
10
110.19615242270663
20
153
10
109.76012004174741
20
153.65256857405234
10
109.24264068711929
20
154.2426406871193
10
108.65256857405232
20
154.76012004174743
10
108
20
155.19615242270663
10
107.29610059419053
20
155.54327719506773
10
106.55291427061512
20
155.7955549577344
10
105.7831571533203
20
155.94866916824287
10
105
20
156
10
104.2168428466797
20
155.94866916824287
10
103.44708572938488
20
155.7955549577344
10
102.70389940580947
20
155.54327719506773
10
102
20
155.19615242270663
10
101.34743142594768
20
154.76012004174743
10
100.75735931288071
20
154.2426406871193
10
100.23987995825259
20
153.65256857405234
10
99.80384757729337
20
153
10
99.45672280493228
20
152.29610059419053
10
99.20444504226559
20
151.55291427061513
10
99.05133083175714
20
150.7831571533203
10
99
20
150
10
99.05133083175714
20
149.2168428466797
10
99.20444504226559
20
148.44708572938487
10
99.45672280493228
20
147.70389940580947
10
99.80384757729337
20
147
10
100.23987995825259
20
146.34743142594766
10
100.75735931288071
20
145.7573593128807
10
101.34743142594768
20
145.2398799582526
10
102
20
144.80384757729337
10
102.70389940580947
20
144.45672280493227
10
103.44708572938488
20
144.2044450422656
10
104.2168428466797
20
144.05133083175713
10
105
20
144
10
105.7831571533203
20
144.05133083175713
10
106.55291427061512
20
144.2044450422656
10
107.29610059419053
20
144.45672280493227
10
108
20
144.80384757729337
10
108.65256857405232
20
145.23987995825257
10
109.24264068711929
20
145.7573593128807
10
109.76012004174741
20
146.34743142594766
10
110.19615242270663
20
147
10
110.54327719506772
20
147.70389940580947
10
110.79555495773441
20
148.44708572938487
10
110.94866916824286
20
149.2168428466797
10
111
20
150
0
LWPOLYLINE
5
2B
330
11
100
AcDbEntity
100
AcDbPolyline
8
NESTED_PARTS
6
ByLayer
62
256
370
-1
90
8
70
1
10
130
20
135
10
250
20
135
10
250
20
195
10
220
20
195
10
220
20
165
10
160
20
165
10
160
20
195
10
130
20
195
0
LWPOLYLINE
5
2C
330
11
100
AcDbEntity
100
AcDbPolyline
8
NESTED_PARTS
6
ByLayer
62
256
370
-1
90
49
70
1
10
156
20
150
10
155.94866916824287
20
150.7831571533203
10
155.7955549577344
20
151.55291427061513
10
155.54327719506773
20
152.29610059419053
10
155.19615242270663
20
153
10
154.76012004174743
20
153.65256857405234
10
154.2426406871193
20
154.2426406871193
10
153.65256857405234
20
154.76012004174743
10
153
20
155.19615242270663
10
152.29610059419053
20
155.54327719506773
10
151.55291427061513
20
155.7955549577344
10
150.7831571533203
20
155.94866916824287
10
150
20
156
10
149.2168428466797
20
155.94866916824287
10
148.44708572938487
20
155.7955549577344
10
147.70389940580947
20
155.54327719506773
10
147
20
155.19615242270663
10
146.34743142594766
20
154.76012004174743
10
145.7573593128807
20
154.2426406871193
10
145.2398799582526
20
153.65256857405234
10
144.80384757729337
20
153
10
144.45672280493227
20
152.29610059419053
10
144.2044450422656
20
151.55291427061513
10
144.05133083175713
20
150.7831571533203
10
144
20
150
10
144.05133083175713
20
149.2168428466797
10
144.2044450422656
20
148.44708572938487
10
144.45672280493227
20
147.70389940580947
10
144.80384757729337
20
147
10
145.2398799582526
20
146.34743142594766
10
145.7573593128807
20
145.7573593128807
10
146.34743142594766
20
145.2398799582526
10
147
20
144.80384757729337
10
147.70389940580947
20
144.45672280493227
10
148.44708572938487
20
144.2044450422656
10
149.2168428466797
20
144.05133083175713
10
150
20
144
10
150.7831571533203
20
144.05133083175713
10
151.55291427061513
20
144.2044450422656
10
152.29610059419053
20
144.45672280493227
10
153
20
144.80384757729337
10
153.6525685740523
20
145.23987995825257
10
154.2426406871193
20
145.7573593128807
10
154.7601200417474
20
146.34743142594766
10
155.19615242270663
20
147
10
155.54327719506773
20
147.70389940580947
10
155.7955549577344
20
148.44708572938487
10
155.94866916824287
20
149.2168428466797
10
156
20
150
0
LWPOLYLINE
5
2D
330
11
100
AcDbEntity
100
AcDbPolyline
8
NESTED_PARTS
6
ByLayer
62
256
370
-1
90
49
70
1
10
236
20
150
10
235.94866916824287
20
150.7831571533203
10
235.7955549577344
20
151.55291427061513
10
235.54327719506773
20
152.29610059419053
10
235.19615242270663
20
153
10
234.76012004174743
20
153.65256857405234
10
234.2426406871193
20
154.2426406871193
10
233.65256857405234
20
154.76012004174743
10
233
20
155.19615242270663
10
232.29610059419053
20
155.54327719506773
10
231.55291427061513
20
155.7955549577344
10
230.7831571533203
20
155.94866916824287
10
230
20
156
10
229.2168428466797
20
155.94866916824287
10
228.44708572938487
20
155.7955549577344
10
227.70389940580947
20
155.54327719506773
10
227
20
155.19615242270663
10
226.34743142594766
20
154.76012004174743
10
225.7573593128807
20
154.2426406871193
10
225.23987995825257
20
153.65256857405234
10
224.80384757729337
20
153
10
224.45672280493227
20
152.29610059419053
10
224.2044450422656
20
151.55291427061513
10
224.05133083175713
20
150.7831571533203
10
224
20
150
10
224.05133083175713
20
149.2168428466797
10
224.2044450422656
20
148.44708572938487
10
224.45672280493227
20
147.70389940580947
10
224.80384757729337
20
147
10
225.23987995825257
20
146.34743142594766
10
225.7573593128807
20
145.7573593128807
10
226.34743142594766
20
145.2398799582526
10
227
20
144.80384757729337
10
227.70389940580947
20
144.45672280493227
10
228.44708572938487
20
144.2044450422656
10
229.2168428466797
20
144.05133083175713
10
230
20
144
10
230.7831571533203
20
144.05133083175713
10
231.55291427061513
20
144.2044450422656
10
232.29610059419053
20
144.45672280493227
10
233
20
144.80384757729337
10
233.65256857405234
20
145.23987995825257
10
234.2426406871193
20
145.7573593128807
10
234.76012004174743
20
146.34743142594766
10
235.19615242270663
20
147
10
235.54327719506773
20
147.70389940580947
10
235.7955549577344
20
148.44708572938487
10
235.94866916824287
20
149.2168428466797
10
236
20
150
0
LWPOLYLINE
5
2E
330
11
100
AcDbEntity
100
AcDbPolyline
8
NESTED_PARTS
6
ByLayer
62
256
370
-1
90
8
70
1
10
365
20
5
10
485
20
5
10
485
20
65
10
455
20
65
10
455
20
35
10
395
20
35
10
395
20
65
10
365
20
65
0
LWPOLYLINE
5
2F
330
11
100
AcDbEntity
100
AcDbPolyline
8
NESTED_PARTS
6
ByLayer
62
256
370
-1
90
49
70
1
10
391
20
20
10
390.9486691682429
20
20.78315715332031
10
390.7955549577344
20
21.552914270615126
10
390.54327719506773
20
22.296100594190538
10
390.19615242270663
20
23
10
389.7601200417474
20
23.652568574052324
10
389.24264068711926
20
24.242640687119284
10
388.65256857405234
20
24.760120041747413
10
388
20
25.196152422706632
10
387.29610059419053
20
25.54327719506772
10
386.55291427061513
20
25.79555495773441
10
385.7831571533203
20
25.948669168242862
10
385
20
26
10
384.2168428466797
20
25.948669168242862
10
383.44708572938487
20
25.79555495773441
10
382.70389940580947
20
25.54327719506772
10
382
20
25.196152422706632
10
381.34743142594766
20
24.760120041747413
10
380.75735931288074
20
24.242640687119284
10
380.2398799582526
20
23.652568574052324
10
379.80384757729337
20
23
10
379.45672280493227
20
22.29610059419054
10
379.2044450422656
20
21.552914270615126
10
379.0513308317571
20
20.78315715332031
10
379
20
20
10
379.0513308317571
20
19.21684284667969
10
379.2044450422656
20
18.447085729384874
10
379.45672280493227
20
17.703899405809462
10
379.80384757729337
20
17
10
380.2398799582526
20
16.347431425947676
10
380.75735931288074
20
15.757359312880716
10
381.34743142594766
20
15.23987995825259
10
382
20
14.803847577293368
10
382.70389940580947
20
14.45672280493228
10
383.44708572938487
20
14.20444504226559
10
384.2168428466797
20
14.051330831757138
10
385
20
14
10
385.7831571533203
20
14.051330831757138
10
386.55291427061513
20
14.20444504226559
10
387.29610059419053
20
14.456722804932278
10
388
20
14.803847577293368
10
388.65256857405234
20
15.239879958252587
10
389.24264068711926
20
15.757359312880714
10
389.7601200417474
20
16.347431425947676
10
390.19615242270663
20
16.999999999999996
10
390.54327719506773
20
17.703899405809462
10
390.7955549577344
20
18.44708572938487
10
390.9486691682429
20
19.21684284667969
10
391
20
20
0
LWPOLYLINE
5
30
330
11
100
AcDbEntity
100
AcDbPolyline
8
NESTED_PARTS
6
ByLayer
62
256
370
-1
90
49
70
1
10
471
20
20
10
470.9486691682429
20
20.78315715332031
10
470.7955549577344
20
21.552914270615126
10
470.54327719506773
20
22.296100594190538
10
470.19615242270663
20
23
10
469.7601200417474
20
23.652568574052324
10
469.2426406871193
20
24.242640687119284
10
468.65256857405234
20
24.760120041747413
10
468
20
25.196152422706632
10
467.29610059419053
20
25.54327719506772
10
466.55291427061513
20
25.79555495773441
10
465.7831571533203
20
25.948669168242862
10
465
20
26
10
464.2168428466797
20
25.948669168242862
10
463.44708572938487
20
25.79555495773441
10
462.70389940580947
20
25.54327719506772
10
462
20
25.196152422706632
10
461.34743142594766
20
24.760120041747413
10
460.7573593128807
20
24.242640687119284
10
460.2398799582526
20
23.652568574052324
10
459.80384757729337
20
23
10
459.45672280493227
20
22.29610059419054
10
459.2044450422656
20
21.552914270615126
10
459.0513308317571
20
20.78315715332031
10
459
20
20
10
459.0513308317571
20
19.21684284667969
10
459.2044450422656
20
18.447085729384874
10
459.45672280493227
20
17.703899405809462
10
459.80384757729337
20
17
10
460.2398799582526
20
16.347431425947676
10
460.7573593128807
20
15.757359312880716
10
461.34743142594766
20
15.23987995825259
10
462
20
14.803847577293368
10
462.70389940580947
20
14.45672280493228
10
463.44708572938487
20
14.20444504226559
10
464.2168428466797
20
14.051330831757138
10
465
20
14
10
465.7831571533203
20
14.051330831757138
10
466.55291427061513
20
14.20444504226559
10
467.29610059419053
20
14.456722804932278
10
468
20
14.803847577293368
10
468.65256857405234
20
15.239879958252587
10
469.2426406871193
20
15.757359312880714
10
469.7601200417474
20
16.347431425947676
10
470.19615242270663
20
16.999999999999996
10
470.54327719506773
20
17.703899405809462
10
470.7955549577344
20
18.44708572938487
10
470.9486691682429
20
19.21684284667969
10
471
20
20
0
LWPOLYLINE
5
31
330
11
100
AcDbEntity
100
AcDbPolyline
8
NESTED_PARTS
6
ByLayer
62
256
370
-1
90
8
70
1
10
490
20
5
10
610
20
5
10
610
20
65
10
580
20
65
10
580
20
35
10
520
20
35
10
520
20
65
10
490
20
65
0
LWPOLYLINE
5
32
330
11
100
AcDbEntity
100
AcDbPolyline
8
NESTED_PARTS
6
ByLayer
62
256
370
-1
90
49
70
1
10
516
20
20
10
515.9486691682429
20
20.78315715332031
10
515.7955549577345
20
21.552914270615126
10
515.5432771950677
20
22.296100594190538
10
515.1961524227066
20
23
10
514.7601200417474
20
23.652568574052324
10
514.2426406871193
20
24.242640687119284
10
513.6525685740523
20
24.760120041747413
10
513
20
25.196152422706632
10
512.2961005941905
20
25.54327719506772
10
511.55291427061513
20
25.79555495773441
10
510.7831571533203
20
25.948669168242862
10
510
20
26
10
509.2168428466797
20
25.948669168242862
10
508.44708572938487
20
25.79555495773441
10
507.70389940580947
20
25.54327719506772
10
507
20
25.196152422706632
10
506.34743142594766
20
24.760120041747413
10
505.75735931288074
20
24.242640687119284
10
505.2398799582526
20
23.652568574052324
10
504.80384757729337
20
23
10
504.45672280493227
20
22.29610059419054
10
504.2044450422656
20
21.552914270615126
10
504.0513308317571
20
20.78315715332031
10
504
20
20
10
504.0513308317571
20
19.21684284667969
10
504.2044450422656
20
18.447085729384874
10
504.45672280493227
20
17.703899405809462
10
504.80384757729337
20
17
10
505.2398799582526
20
16.347431425947676
10
505.75735931288074
20
15.757359312880716
10
506.34743142594766
20
15.23987995825259
10
507
20
14.803847577293368
10
507.70389940580947
20
14.45672280493228
10
508.44708572938487
20
14.20444504226559
10
509.2168428466797
20
14.051330831757138
10
510
20
14
10
510.7831571533203
20
14.051330831757138
10
511.55291427061513
20
14.20444504226559
10
512.2961005941905
20
14.456722804932278
10
513
20
14.803847577293368
10
513.6525685740523
20
15.239879958252587
10
514.2426406871193
20
15.757359312880714
10
514.7601200417474
20
16.347431425947676
10
515.1961524227066
20
16.999999999999996
10
515.5432771950677
20
17.703899405809462
10
515.7955549577345
20
18.44708572938487
10
515.9486691682429
20
19.21684284667969
10
516
20
20
0
LWPOLYLINE
5
33
330
11
100
AcDbEntity
100
AcDbPolyline
8
NESTED_PARTS
6
ByLayer
62
256
370
-1
90
49
70
1
10
596
20
20
10
595.9486691682429
20
20.78315715332031
10
595.7955549577345
20
21.552914270615126
10
595.5432771950677
20
22.296100594190538
10
595.1961524227066
20
23
10
594.7601200417474
20
23.652568574052324
10
594.2426406871193
20
24.242640687119284
10
593.6525685740523
20
24.760120041747413
10
593
20
25.196152422706632
10
592.2961005941905
20
25.54327719506772
10
591.5529142706151
20
25.79555495773441
10
590.7831571533203
20
25.948669168242862
10
590
20
26
10
589.2168428466797
20
25.948669168242862
10
588.4470857293849
20
25.79555495773441
10
587.7038994058095
20
25.54327719506772
10
587
20
25.196152422706632
10
586.3474314259477
20
24.760120041747413
10
585.7573593128807
20
24.242640687119284
10
585.2398799582526
20
23.652568574052324
10
584.8038475772934
20
23
10
584.4567228049323
20
22.29610059419054
10
584.2044450422655
20
21.552914270615126
10
584.0513308317571
20
20.78315715332031
10
584
20
20
10
584.0513308317571
20
19.21684284667969
10
584.2044450422655
20
18.447085729384874
10
584.4567228049323
20
17.703899405809462
10
584.8038475772934
20
17
10
585.2398799582526
20
16.347431425947676
10
585.7573593128807
20
15.757359312880716
10
586.3474314259477
20
15.23987995825259
10
587
20
14.803847577293368
10
587.7038994058095
20
14.45672280493228
10
588.4470857293849
20
14.20444504226559
10
589.2168428466797
20
14.051330831757138
10
590
20
14
10
590.7831571533203
20
14.051330831757138
10
591.5529142706151
20
14.20444504226559
10
592.2961005941905
20
14.456722804932278
10
593
20
14.803847577293368
10
593.6525685740523
20
15.239879958252587
10
594.2426406871193
20
15.757359312880714
10
594.7601200417474
20
16.347431425947676
10
595.1961524227066
20
16.999999999999996
10
595.5432771950677
20
17.703899405809462
10
595.7955549577345
20
18.44708572938487
10
595.9486691682429
20
19.21684284667969
10
596
20
20
0
LWPOLYLINE
5
34
330
11
100
AcDbEntity
100
AcDbPolyline
8
NESTED_PARTS
6
ByLayer
62
256
370
-1
90
8
70
1
10
365
20
70
10
485
20
70
10
485
20
130
10
455
20
130
10
455
20
100
10
395
20
100
10
395
20
130
10
365
20
130
0
LWPOLYLINE
5
35
330
11
100
AcDbEntity
100
AcDbPolyline
8
NESTED_PARTS
6
ByLayer
62
256
370
-1
90
49
70
1
10
391
20
85
10
390.9486691682429
20
85.7831571533203
10
390.7955549577344
20
86.55291427061513
10
390.54327719506773
20
87.29610059419053
10
390.19615242270663
20
88
10
389.7601200417474
20
88.65256857405232
10
389.24264068711926
20
89.24264068711929
10
388.65256857405234
20
89.76012004174741
10
388
20
90.19615242270663
10
387.29610059419053
20
90.54327719506772
10
386.55291427061513
20
90.79555495773441
10
385.7831571533203
20
90.94866916824286
10
385
20
91
10
384.2168428466797
20
90.94866916824286
10
383.44708572938487
20
90.79555495773441
10
382.70389940580947
20
90.54327719506772
10
382
20
90.19615242270663
10
381.34743142594766
20
89.76012004174741
10
380.75735931288074
20
89.24264068711929
10
380.2398799582526
20
88.65256857405232
10
379.80384757729337
20
88
10
379.45672280493227
20
87.29610059419053
10
379.2044450422656
20
86.55291427061513
10
379.0513308317571
20
85.78315715332032
10
379
20
85
10
379.0513308317571
20
84.2168428466797
10
379.2044450422656
20
83.44708572938488
10
379.45672280493227
20
82.70389940580947
10
379.80384757729337
20
82
10
380.2398799582526
20
81.34743142594768
10
380.75735931288074
20
80.75735931288071
10
381.34743142594766
20
80.23987995825259
10
382
20
79.80384757729337
10
382.70389940580947
20
79.45672280493228
10
383.44708572938487
20
79.20444504226559
10
384.2168428466797
20
79.05133083175714
10
385
20
79
10
385.7831571533203
20
79.05133083175714
10
386.55291427061513
20
79.20444504226559
10
387.29610059419053
20
79.45672280493228
10
388
20
79.80384757729337
10
388.65256857405234
20
80.23987995825259
10
389.24264068711926
20
80.75735931288071
10
389.7601200417474
20
81.34743142594768
10
390.19615242270663
20
82
10
390.54327719506773
20
82.70389940580947
10
390.7955549577344
20
83.44708572938487
10
390.9486691682429
20
84.2168428466797
10
391
20
85
0
LWPOLYLINE
5
36
330
11
100
AcDbEntity
100
AcDbPolyline
8
NESTED_PARTS
6
ByLayer
62
256
370
-1
90
49
70
1
10
471
20
85
10
470.9486691682429
20
85.7831571533203
10
470.7955549577344
20
86.55291427061513
10
470.54327719506773
20
87.29610059419053
10
470.19615242270663
20
88
10
469.7601200417474
20
88.65256857405232
10
469.2426406871193
20
89.24264068711929
10
468.65256857405234
20
89.76012004174741
10
468
20
90.19615242270663
10
467.29610059419053
20
90.54327719506772
10
466.55291427061513
20
90.79555495773441
10
465.7831571533203
20
90.94866916824286
10
465
20
91
10
464.2168428466797
20
90.94866916824286
10
463.44708572938487
20
90.79555495773441
10
462.70389940580947
20
90.54327719506772
10
462
20
90.19615242270663
10
461.34743142594766
20
89.76012004174741
10
460.7573593128807
20
89.24264068711929
10
460.2398799582526
20
88.65256857405232
10
459.80384757729337
20
88
10
459.45672280493227
20
87.29610059419053
10
459.2044450422656
20
86.55291427061513
10
459.0513308317571
20
85.78315715332032
10
459
20
85
10
459.0513308317571
20
84.2168428466797
10
459.2044450422656
20
83.44708572938488
10
459.45672280493227
20
82.70389940580947
10
459.80384757729337
20
82
10
460.2398799582526
20
81.34743142594768
10
460.7573593128807
20
80.75735931288071
10
461.34743142594766
20
80.23987995825259
10
462
20
79.80384757729337
10
462.70389940580947
20
79.45672280493228
10
463.44708572938487
20
79.20444504226559
10
464.2168428466797
20
79.05133083175714
10
465
20
79
10
465.7831571533203
20
79.05133083175714
10
466.55291427061513
20
79.20444504226559
10
467.29610059419053
20
79.45672280493228
10
468
20
79.80384757729337
10
468.65256857405234
20
80.23987995825259
10
469.2426406871193
20
80.75735931288071
10
469.7601200417474
20
81.34743142594768
10
470.19615242270663
20
82
10
470.54327719506773
20
82.70389940580947
10
470.7955549577344
20
83.44708572938487
10
470.9486691682429
20
84.2168428466797
10
471
20
85
0
LWPOLYLINE
5
37
330
11
100
AcDbEntity
100
AcDbPolyline
8
NESTED_PARTS
6
ByLayer
62
256
370
-1
90
8
70
1
10
490
20
70
10
610
20
70
10
610
20
130
10
580
20
130
10
580
20
100
10
520
20
100
10
520
20
130
10
490
20
130
0
LWPOLYLINE
5
38
330
11
100
AcDbEntity
100
AcDbPolyline
8
NESTED_PARTS
6
ByLayer
62
256
370
-1
90
49
70
1
10
516
20
85
10
515.9486691682429
20
85.7831571533203
10
515.7955549577345
20
86.55291427061513
10
515.5432771950677
20
87.29610059419053
10
515.1961524227066
20
88
10
514.7601200417474
20
88.65256857405232
10
514.2426406871193
20
89.24264068711929
10
513.6525685740523
20
89.76012004174741
10
513
20
90.19615242270663
10
512.2961005941905
20
90.54327719506772
10
511.55291427061513
20
90.79555495773441
10
510.7831571533203
20
90.94866916824286
10
510
20
91
10
509.2168428466797
20
90.94866916824286
10
508.44708572938487
20
90.79555495773441
10
507.70389940580947
20
90.54327719506772
10
507
20
90.19615242270663
10
506.34743142594766
20
89.76012004174741
10
505.75735931288074
20
89.24264068711929
10
505.2398799582526
20
88.65256857405232
10
504.80384757729337
20
88
10
504.45672280493227
20
87.29610059419053
10
504.2044450422656
20
86.55291427061513
10
504.0513308317571
20
85.78315715332032
10
504
20
85
10
504.0513308317571
20
84.2168428466797
10
504.2044450422656
20
83.44708572938488
10
504.45672280493227
20
82.70389940580947
10
504.80384757729337
20
82
10
505.2398799582526
20
81.34743142594768
10
505.75735931288074
20
80.75735931288071
10
506.34743142594766
20
80.23987995825259
10
507
20
79.80384757729337
10
507.70389940580947
20
79.45672280493228
10
508.44708572938487
20
79.20444504226559
10
509.2168428466797
20
79.05133083175714
10
510
20
79
10
510.7831571533203
20
79.05133083175714
10
511.55291427061513
20
79.20444504226559
10
512.2961005941905
20
79.45672280493228
10
513
20
79.80384757729337
10
513.6525685740523
20
80.23987995825259
10
514.2426406871193
20
80.75735931288071
10
514.7601200417474
20
81.34743142594768
10
515.1961524227066
20
82
10
515.5432771950677
20
82.70389940580947
10
515.7955549577345
20
83.44708572938487
10
515.9486691682429
20
84.2168428466797
10
516
20
85
0
LWPOLYLINE
5
39
330
11
100
AcDbEntity
100
AcDbPolyline
8
NESTED_PARTS
6
ByLayer
62
256
370
-1
90
49
70
1
10
596
20
85
10
595.9486691682429
20
85.7831571533203
10
595.7955549577345
20
86.55291427061513
10
595.5432771950677
20
87.29610059419053
10
595.1961524227066
20
88
10
594.7601200417474
20
88.65256857405232
10
594.2426406871193
20
89.24264068711929
10
593.6525685740523
20
89.76012004174741
10
593
20
90.19615242270663
10
592.2961005941905
20
90.54327719506772
10
591.5529142706151
20
90.79555495773441
10
590.7831571533203
20
90.94866916824286
10
590
20
91
10
589.2168428466797
20
90.94866916824286
10
588.4470857293849
20
90.79555495773441
10
587.7038994058095
20
90.54327719506772
10
587
20
90.19615242270663
10
586.3474314259477
20
89.76012004174741
10
585.7573593128807
20
89.24264068711929
10
585.2398799582526
20
88.65256857405232
10
584.8038475772934
20
88
10
584.4567228049323
20
87.29610059419053
10
584.2044450422655
20
86.55291427061513
10
584.0513308317571
20
85.78315715332032
10
584
20
85
10
584.0513308317571
20
84.2168428466797
10
584.2044450422655
20
83.44708572938488
10
584.4567228049323
20
82.70389940580947
10
584.8038475772934
20
82
10
585.2398799582526
20
81.34743142594768
10
585.7573593128807
20
80.75735931288071
10
586.3474314259477
20
80.23987995825259
10
587
20
79.80384757729337
10
587.7038994058095
20
79.45672280493228
10
588.4470857293849
20
79.20444504226559
10
589.2168428466797
20
79.05133083175714
10
590
20
79
10
590.7831571533203
20
79.05133083175714
10
591.5529142706151
20
79.20444504226559
10
592.2961005941905
20
79.45672280493228
10
593
20
79.80384757729337
10
593.6525685740523
20
80.23987995825259
10
594.2426406871193
20
80.75735931288071
10
594.7601200417474
20
81.34743142594768
10
595.1961524227066
20
82
10
595.5432771950677
20
82.70389940580947
10
595.7955549577345
20
83.44708572938487
10
595.9486691682429
20
84.2168428466797
10
596
20
85
0
LWPOLYLINE
5
3A
330
11
100
AcDbEntity
100
AcDbPolyline
8
NESTED_PARTS
6
ByLayer
62
256
370
-1
90
8
70
1
10
365
20
135
10
485
20
135
10
485
20
195
10
455
20
195
10
455
20
165
10
395
20
165
10
395
20
195
10
365
20
195
0
LWPOLYLINE
5
3B
330
11
100
AcDbEntity
100
AcDbPolyline
8
NESTED_PARTS
6
ByLayer
62
256
370
-1
90
49
70
1
10
391
20
150
10
390.9486691682429
20
150.7831571533203
10
390.7955549577344
20
151.55291427061513
10
390.54327719506773
20
152.29610059419053
10
390.19615242270663
20
153
10
389.7601200417474
20
153.65256857405234
10
389.24264068711926
20
154.2426406871193
10
388.65256857405234
20
154.76012004174743
10
388
20
155.19615242270663
10
387.29610059419053
20
155.54327719506773
10
386.55291427061513
20
155.7955549577344
10
385.7831571533203
20
155.94866916824287
10
385
20
156
10
384.2168428466797
20
155.94866916824287
10
383.44708572938487
20
155.7955549577344
10
382.70389940580947
20
155.54327719506773
10
382
20
155.19615242270663
10
381.34743142594766
20
154.76012004174743
10
380.75735931288074
20
154.2426406871193
10
380.2398799582526
20
153.65256857405234
10
379.80384757729337
20
153
10
379.45672280493227
20
152.29610059419053
10
379.2044450422656
20
151.55291427061513
10
379.0513308317571
20
150.7831571533203
10
379
20
150
10
379.0513308317571
20
149.2168428466797
10
379.2044450422656
20
148.44708572938487
10
379.45672280493227
20
147.70389940580947
10
379.80384757729337
20
147
10
380.2398799582526
20
146.34743142594766
10
380.75735931288074
20
145.7573593128807
10
381.34743142594766
20
145.2398799582526
10
382
20
144.80384757729337
10
382.70389940580947
20
144.45672280493227
10
383.44708572938487
20
144.2044450422656
10
384.2168428466797
20
144.05133083175713
10
385
20
144
10
385.7831571533203
20
144.05133083175713
10
386.55291427061513
20
144.2044450422656
10
387.29610059419053
20
144.45672280493227
10
388
20
144.80384757729337
10
388.65256857405234
20
145.23987995825257
10
389.24264068711926
20
145.7573593128807
10
389.7601200417474
20
146.34743142594766
10
390.19615242270663
20
147
10
390.54327719506773
20
147.70389940580947
10
390.7955549577344
20
148.44708572938487
10
390.9486691682429
20
149.2168428466797
10
391
20
150
0
LWPOLYLINE
5
3C
330
11
100
AcDbEntity
100
AcDbPolyline
8
NESTED_PARTS
6
ByLayer
62
256
370
-1
90
49
70
1
10
471
20
150
10
470.9486691682429
20
150.7831571533203
10
470.7955549577344
20
151.55291427061513
10
470.54327719506773
20
152.29610059419053
10
470.19615242270663
20
153
10
469.7601200417474
20
153.65256857405234
10
469.2426406871193
20
154.2426406871193
10
468.65256857405234
20
154.76012004174743
10
468
20
155.19615242270663
10
467.29610059419053
20
155.54327719506773
10
466.55291427061513
20
155.7955549577344
10
465.7831571533203
20
155.94866916824287
10
465
20
156
10
464.2168428466797
20
155.94866916824287
10
463.44708572938487
20
155.7955549577344
10
462.70389940580947
20
155.54327719506773
10
462
20
155.19615242270663
10
461.34743142594766
20
154.76012004174743
10
460.7573593128807
20
154.2426406871193
10
460.2398799582526
20
153.65256857405234
10
459.80384757729337
20
153
10
459.45672280493227
20
152.29610059419053
10
459.2044450422656
20
151.55291427061513
10
459.0513308317571
20
150.7831571533203
10
459
20
150
10
459.0513308317571
20
149.2168428466797
10
459.2044450422656
20
148.44708572938487
10
459.45672280493227
20
147.70389940580947
10
459.80384757729337
20
147
10
460.2398799582526
20
146.34743142594766
10
460.7573593128807
20
145.7573593128807
10
461.34743142594766
20
145.2398799582526
10
462
20
144.80384757729337
10
462.70389940580947
20
144.45672280493227
10
463.44708572938487
20
144.2044450422656
10
464.2168428466797
20
144.05133083175713
10
465
20
144
10
465.7831571533203
20
144.05133083175713
10
466.55291427061513
20
144.2044450422656
10
467.29610059419053
20
144.45672280493227
10
468
20
144.80384757729337
10
468.65256857405234
20
145.23987995825257
10
469.2426406871193
20
145.7573593128807
10
469.7601200417474
20
146.34743142594766
10
470.19615242270663
20
147
10
470.54327719506773
20
147.70389940580947
10
470.7955549577344
20
148.44708572938487
10
470.9486691682429
20
149.2168428466797
10
471
20
150
0
LWPOLYLINE
5
3D
330
11
100
AcDbEntity
100
AcDbPolyline
8
NESTED_PARTS
6
ByLayer
62
256
370
-1
90
8
70
1
10
490
20
135
10
610
20
135
10
610
20
195
10
580
20
195
10
580
20
165
10
520
20
165
10
520
20
195
10
490
20
195
0
LWPOLYLINE
5
3E
330
11
100
AcDbEntity
100
AcDbPolyline
8
NESTED_PARTS
6
ByLayer
62
256
370
-1
90
49
70
1
10
516
20
150
10
515.9486691682429
20
150.7831571533203
10
515.7955549577345
20
151.55291427061513
10
515.5432771950677
20
152.29610059419053
10
515.1961524227066
20
153
10
514.7601200417474
20
153.65256857405234
10
514.2426406871193
20
154.2426406871193
10
513.6525685740523
20
154.76012004174743
10
513
20
155.19615242270663
10
512.2961005941905
20
155.54327719506773
10
511.55291427061513
20
155.7955549577344
10
510.7831571533203
20
155.94866916824287
10
510
20
156
10
509.2168428466797
20
155.94866916824287
10
508.44708572938487
20
155.7955549577344
10
507.70389940580947
20
155.54327719506773
10
507
20
155.19615242270663
10
506.34743142594766
20
154.76012004174743
10
505.75735931288074
20
154.2426406871193
10
505.2398799582526
20
153.65256857405234
10
504.80384757729337
20
153
10
504.45672280493227
20
152.29610059419053
10
504.2044450422656
20
151.55291427061513
10
504.0513308317571
20
150.7831571533203
10
504
20
150
10
504.0513308317571
20
149.2168428466797
10
504.2044450422656
20
148.44708572938487
10
504.45672280493227
20
147.70389940580947
10
504.80384757729337
20
147
10
505.2398799582526
20
146.34743142594766
10
505.75735931288074
20
145.7573593128807
10
506.34743142594766
20
145.2398799582526
10
507
20
144.80384757729337
10
507.70389940580947
20
144.45672280493227
10
508.44708572938487
20
144.2044450422656
10
509.2168428466797
20
144.05133083175713
10
510
20
144
10
510.7831571533203
20
144.05133083175713
10
511.55291427061513
20
144.2044450422656
10
512.2961005941905
20
144.45672280493227
10
513
20
144.80384757729337
10
513.6525685740523
20
145.23987995825257
10
514.2426406871193
20
145.7573593128807
10
514.7601200417474
20
146.34743142594766
10
515.1961524227066
20
147
10
515.5432771950677
20
147.70389940580947
10
515.7955549577345
20
148.44708572938487
10
515.9486691682429
20
149.2168428466797
10
516
20
150
0
LWPOLYLINE
5
3F
330
11
100
AcDbEntity
100
AcDbPolyline
8
NESTED_PARTS
6
ByLayer
62
256
370
-1
90
49
70
1
10
596
20
150
10
595.9486691682429
20
150.7831571533203
10
595.7955549577345
20
151.55291427061513
10
595.5432771950677
20
152.29610059419053
10
595.1961524227066
20
153
10
594.7601200417474
20
153.65256857405234
10
594.2426406871193
20
154.2426406871193
10
593.6525685740523
20
154.76012004174743
10
593
20
155.19615242270663
10
592.2961005941905
20
155.54327719506773
10
591.5529142706151
20
155.7955549577344
10
590.7831571533203
20
155.94866916824287
10
590
20
156
10
589.2168428466797
20
155.94866916824287
10
588.4470857293849
20
155.7955549577344
10
587.7038994058095
20
155.54327719506773
10
587
20
155.19615242270663
10
586.3474314259477
20
154.76012004174743
10
585.7573593128807
20
154.2426406871193
10
585.2398799582526
20
153.65256857405234
10
584.8038475772934
20
153
10
584.4567228049323
20
152.29610059419053
10
584.2044450422655
20
151.55291427061513
10
584.0513308317571
20
150.7831571533203
10
584
20
150
10
584.0513308317571
20
149.2168428466797
10
584.2044450422655
20
148.44708572938487
10
584.4567228049323
20
147.70389940580947
10
584.8038475772934
20
147
10
585.2398799582526
20
146.34743142594766
10
585.7573593128807
20
145.7573593128807
10
586.3474314259477
20
145.2398799582526
10
587
20
144.80384757729337
10
587.7038994058095
20
144.45672280493227
10
588.4470857293849
20
144.2044450422656
10
589.2168428466797
20
144.05133083175713
10
590
20
144
10
590.7831571533203
20
144.05133083175713
10
591.5529142706151
20
144.2044450422656
10
592.2961005941905
20
144.45672280493227
10
593
20
144.80384757729337
10
593.6525685740523
20
145.23987995825257
10
594.2426406871193
20
145.7573593128807
10
594.7601200417474
20
146.34743142594766
10
595.1961524227066
20
147
10
595.5432771950677
20
147.70389940580947
10
595.7955549577345
20
148.44708572938487
10
595.9486691682429
20
149.2168428466797
10
596
20
150
0
ENDSEC
0
SECTION
2
OBJECTS
0
DICTIONARY
5
1
330
0
100
AcDbDictionary
281
1
3
ACAD_GROUP
350
15
0
DICTIONARY
5
15
330
1
100
AcDbDictionary
281
1
0
ENDSEC
0
EOF